PathFileType        4      (X/Y/Z)      C:\Users\pc\Desktop\IMUTRC\Sujet_08\Sujet_08_velo_80.trc         
DataRate	CameraRate	NumFrames	NumMarkers	Units	OrigDataRate	OrigDataStartFrame	OrigNumFrames
60.0	60.0	4	64	mm	60.0	471	940
Frame#	Time	pHipOrigin			pRightASI			pLeftASI			pRightCSI			pLeftCSI			pRightIschialTub			pLeftIschialTub			pSacrum			pL5SpinalProcess			pL3SpinalProcess			pT12SpinalProcess			pIJ			pT4SpinalProcess			pT8SpinalProcess			pPX			pC7SpinalProcess			pTopOfHead			pRightAuricularis			pLeftAuricularis			pBackOfHead			pRightAcromion			pLeftAcromion			pRightArmLatEpicondyle			pRightArmMedEpicondyle			pLeftArmLatEpicondyle			pLeftArmMedEpicondyle			pRightUlnarStyloid			pRightRadialStyloid			pRightOlecranon			pLeftUlnarStyloid			pLeftRadialStyloid			pLeftOlecranon			pRightTopOfHand			pRightPinky			pRightBallHand			pLeftTopOfHand			pLeftPinky			pLeftBallHand			pRightGreaterTrochanter			pRightKneeLatEpicondyle			pRightKneeMedEpicondyle			pRightPatella			pLeftGreaterTrochanter			pLeftKneeLatEpicondyle			pLeftKneeMedEpicondyle			pLeftPatella			pRightTibialTub			pRightLatMalleolus			pRightMedMalleolus			pLeftTibialTub			pLeftLatMalleolus			pLeftMedMalleolus			pRightHeelFoot			pRightFirstMetatarsal			pRightFifthMetatarsal			pRightPivotFoot			pRightHeelCenter			pRightToe			pLeftHeelFoot			pLeftFirstMetatarsal			pLeftFifthMetatarsal			pLeftPivotFoot			pLeftHeelCenter			pLeftToe			
		X1	Y1	Z1	X2	Y2	Z2	X3	Y3	Z3	X4	Y4	Z4	X5	Y5	Z5	X6	Y6	Z6	X7	Y7	Z7	X8	Y8	Z8	X9	Y9	Z9	X10	Y10	Z10	X11	Y11	Z11	X12	Y12	Z12	X13	Y13	Z13	X14	Y14	Z14	X15	Y15	Z15	X16	Y16	Z16	X17	Y17	Z17	X18	Y18	Z18	X19	Y19	Z19	X20	Y20	Z20	X21	Y21	Z21	X22	Y22	Z22	X23	Y23	Z23	X24	Y24	Z24	X25	Y25	Z25	X26	Y26	Z26	X27	Y27	Z27	X28	Y28	Z28	X29	Y29	Z29	X30	Y30	Z30	X31	Y31	Z31	X32	Y32	Z32	X33	Y33	Z33	X34	Y34	Z34	X35	Y35	Z35	X36	Y36	Z36	X37	Y37	Z37	X38	Y38	Z38	X39	Y39	Z39	X40	Y40	Z40	X41	Y41	Z41	X42	Y42	Z42	X43	Y43	Z43	X44	Y44	Z44	X45	Y45	Z45	X46	Y46	Z46	X47	Y47	Z47	X48	Y48	Z48	X49	Y49	Z49	X50	Y50	Z50	X51	Y51	Z51	X52	Y52	Z52	X53	Y53	Z53	X54	Y54	Z54	X55	Y55	Z55	X56	Y56	Z56	X57	Y57	Z57	X58	Y58	Z58	X59	Y59	Z59	X60	Y60	Z60	X61	Y61	Z61	X62	Y62	Z62	X63	Y63	Z63	X64	Y64	Z64	
471	7.833	0.0	1249.97582	7.653894434872941E-14	96.23088895667948	1318.32377	131.158738886472	84.83774695881456	1329.31115	-132.77862444510197	72.52549416679328	1394.42752	111.9003339907976	63.14642350897476	1403.47595	-105.41966865996773	-65.77081483699416	1210.38894	55.75908229277306	-70.47030104131615	1214.75158	-53.014739190439926	-56.533838359982255	1288.59322	4.02855108721488	7.26300022551652	1371.80645	5.672525390850881	75.59695245544151	1464.71443	5.428581077474658	138.4078550107984	1549.22029	4.979703617065222	385.52720896840214	1584.92927	-19.048929874962017	277.1217211215661	1678.48356	-0.9629223143311771	209.5616915911492	1625.80878	2.8833951340334636	296.2420077154938	1509.14868	-14.448806555858276	316.32661352102	1708.37569	-1.1815792448025297	485.0263405758433	1876.25636	-34.06192439697864	468.69254803169565	1784.8026	36.18115486138	419.91976372849547	1796.59787	-88.69282901680344	400.56822744261336	1813.4021	-7.060799950151622	341.1644619822213	1646.16774	147.69225211907752	312.4656918217688	1662.97197	-161.9833757159202	463.851380016512	1386.83331	127.66863683838085	434.75847240695873	1375.84593	74.35986225226515	419.5749488796821	1395.07384	-169.97794670387475	399.6019515018029	1384.5712	-112.49114531426164	556.7972019320723	1155.1289	129.51496927008034	599.6288667215267	1175.81102	109.1376181760172	427.48928655361044	1374.06856	113.18763219189967	495.0883728524313	1160.29943	-200.89881156762718	541.4155568357965	1182.1126	-208.85137907013433	385.93403461104856	1381.98593	-138.93567840834996	737.7641416048725	1073.69304	188.34566374137734	646.5314892954575	1079.02515	169.3753172636143	600.20343127252	1125.39834	128.81405223899824	635.4710374824263	1071.10777	-326.72390360616834	563.8129066827865	1078.05567	-267.4678097901545	537.2242706487427	1130.4073	-217.43052469115113	39.672643681240764	1228.32422	154.57205500989446	385.10923456128705	1047.84038	79.7358102398973	377.96227265166027	1052.84933	3.2893467371076857	398.71245488628705	1090.01252	39.89512110312649	5.012676617576119	1225.57738	-160.31655171184687	253.14473346180435	915.99185	-159.6607259173793	266.9771399594182	919.54659	-84.14322816845446	291.71897273400447	946.69187	-126.44938513189078	424.82676452669637	1015.68614	38.18386878689041	305.752957519604	661.02005	115.23642461160149	298.90173964549473	655.36478	55.279462096821106	288.06113574038943	869.61865	-127.62033846991987	36.45367653101932	583.94682	-158.82374644344654	42.49820735517693	578.45313	-98.91089160532513	245.46340394967407	591.37946	92.06792807369591	381.0138698613541	555.34732	18.505525094444586	398.2295764959186	547.91469	90.74508431816639	409.1936396916924	546.29889	48.26803704209531	280.8924502220907	584.43156	82.77502333817543	483.2628712373312	524.80888	28.36907968996616	-43.32940441309222	552.27732	-125.57959940307501	66.42008603581078	440.94933	-100.77440330688088	62.203942621739195	444.50407	-175.18348656469612	79.06435226509501	427.53827	-138.4667755884113	-15.47364546452841	527.7173	-128.36073476484844	134.05312123465367	370.33927	-144.42457696070477	
472	7.85	0.0	1249.97582	7.653894434872941E-14	96.77010647781518	1318.32377	130.76749832441294	84.23878315280918	1329.47273	-133.0702870439993	73.08463395495107	1394.26594	111.73672485138641	62.56737430954706	1403.47595	-105.48370626409329	-65.52325991475583	1210.22736	55.96680553671936	-70.7818859072356	1214.91316	-52.643406807082435	-56.39014505971707	1288.59322	4.360051792280349	7.26300022551652	1371.80645	5.672525390850881	75.47317499432235	1464.71443	5.324719455501506	138.24425353183162	1549.38187	4.420570256783544	385.26402186582914	1585.09085	-20.746250990260837	276.7745946640421	1678.64514	-2.308834545862919	209.3582584338904	1625.80878	1.8689836075671877	296.14243618020816	1509.31026	-15.58699554344377	316.0833345971487	1708.37569	-2.651267704885166	484.5995443338591	1876.41794	-36.31838530043521	468.513313139826	1785.12576	34.132409541425254	419.51287566521296	1796.59787	-90.72165726504377	400.16134703977525	1813.56368	-9.089621770515864	341.3764612245347	1646.4909	146.1827319807029	311.6433713589142	1662.97197	-163.51709535225226	463.89548769317105	1387.15647	126.8619497884292	434.6987248895207	1376.00751	73.67694500298822	419.2875699395962	1395.23542	-170.6409416861296	399.54220398436485	1384.89436	-113.17406256353854	557.1087867979918	1155.61363	129.14363688672287	599.94044515957	1176.29576	108.76629345310418	427.53339423026944	1374.23014	112.38094514194796	495.3999577183507	1160.62258	-201.27014395098462	541.7470498804175	1182.59734	-208.99507879827556	385.7505108650597	1382.14751	-139.72244319127955	738.095635882062	1074.50093	188.20197810155662	646.8629835726468	1079.67146	169.23163162379353	600.5150161384395	1125.88308	128.44271985564077	636.1539470712587	1071.26935	-326.78365755148246	564.3919558822142	1078.37883	-267.403772186029	537.6795488149273	1130.89203	-217.47035636944312	37.87145328352435	1225.25422	154.95901314571043	372.99603706821875	1025.38089	82.86001113877114	367.3386794578206	1031.68247	6.397907795202491	389.65812168781565	1066.90671	43.898592224935506	7.392914982151893	1227.51633	-160.63948633185785	269.7380960717867	929.72607	-160.08024741401596	281.8930908653717	932.63449	-84.07191581898144	306.1554524036919	961.71873	-125.30392905940226	415.3413590878739	995.00402	41.1928442213791	307.4631283787688	635.32897	111.18734705592742	301.2948265213681	630.64318	51.17062293538843	301.36370365342674	882.3834	-127.63726198996149	38.31888921197243	607.21421	-159.78976663444243	44.031919331064586	601.39736	-99.73321849605583	249.28634241203025	564.88049	87.26055357097222	386.1983603960211	532.24151	14.84062843342554	402.95878120395656	524.97045	87.12001290756331	414.294183210964	523.67782	44.954542836967256	284.85908198471213	558.74048	78.29914954051723	489.10607186287325	504.12675	25.678748788800934	-42.86983616022007	578.61471	-126.88139753007167	62.30697087601114	462.92409	-101.90552496661795	58.54609920024807	466.80198	-176.35443224228075	74.72359802220303	449.02828	-139.57798140900235	-15.924633544025525	552.92364	-129.58286953526104	127.43599790960351	389.72876	-145.33661919452794	
473	7.867	0.0	1249.97582	7.653894434872941E-14	97.84854671539428	1318.16219	129.9849954515298	83.26848696344632	1329.63431	-133.67353450881612	73.85149055917904	1394.26594	111.32556845018132	61.84463304242252	1403.63753	-105.87923048496377	-65.13201169225232	1210.22736	56.50602948573113	-71.19733239512821	1214.91316	-52.14829696260578	-56.35030695354895	1288.59322	4.815322298020548	7.26300022551652	1371.80645	5.672525390850881	75.53721259844791	1464.71443	4.745670256073805	138.3922228304638	1549.38187	3.4901057457127065	385.1687263289105	1585.25243	-23.146405193982634	276.8229924273887	1678.64514	-4.377488044519236	209.3426185931114	1625.80878	0.37937930833852823	296.1068805002831	1509.31026	-17.3042389257647	315.98803906023	1708.53727	-5.051421908606935	484.093084735291	1876.7411	-39.48540253626106	468.25440203562005	1785.44892	31.173123209990106	419.0263395662352	1796.75945	-93.66102898990127	399.7985807414723	1813.56368	-11.925138301276322	341.86022131491984	1646.65248	143.84660772066223	310.6574417566484	1662.81039	-165.6099547767421	464.33514010689714	1387.31804	125.33251257834021	435.2621406760454	1376.00751	72.25137064744072	418.8365741996547	1395.23542	-171.86308288441836	399.21499336598697	1385.05594	-114.29233571197801	557.5043110188623	1155.61363	128.42089561959835	600.3359758083166	1176.29576	108.04354452553515	427.8691850220224	1374.39172	110.9752853929781	495.81540420624333	1160.78416	-201.76525379546132	542.0387265676354	1182.75892	-209.59404383684927	385.29951512511815	1382.14751	-140.94458438956818	738.4271365871273	1074.82409	188.05828480129142	647.1745684385662	1079.83304	168.86029924043606	600.8066787373368	1126.04466	127.84375604963542	636.7329962706865	1071.43093	-326.71961994735693	564.8273182092529	1078.54041	-267.6712429474133	538.0949888749439	1131.05361	-217.96545855347543	36.17413216822551	1222.50738	155.22220024828337	358.7103232219527	1001.79034	86.05957764709717	354.5425634829071	1009.22298	9.581842123193956	378.5152203841102	1042.66985	47.62604058862613	9.110151936596736	1229.45528	-160.67503435133847	285.8562723368828	944.9145	-160.68756988757676	296.52165393822634	947.01503	-84.66361896795986	320.056991783179	978.03822	-125.02918355267045	403.08447472241653	973.35242	43.98553675474312	305.7032684165505	609.15316	105.49210806857307	300.2178850409951	605.43684	45.41565051891654	314.7303015101452	897.08709	-128.23324113730692	43.30701268466073	630.15844	-160.45554528573427	49.00011930416243	624.01844	-100.62664265831609	248.728709041523	538.38152	80.88669384890456	387.34939023445975	507.68149	10.955145928842146	402.99154555440015	501.05675	83.56174744923393	415.0297742219544	499.76412	41.56417660473656	284.5888352147351	532.88783	72.58829122858046	490.54020587559916	481.18252	23.71824057092917	-38.8321083586375	603.98263	-127.92279741884018	62.3952067455258	484.73726	-103.51890795953406	58.985743953529784	489.26148	-177.88387588024585	74.33663988638705	470.67988	-141.37917180671874	-12.81737025351378	577.48366	-130.77223872266174	125.18809543075696	409.60299	-147.43376104526087	
474	7.883	0.0	1249.97582	7.653894434872941E-14	99.03084980751487	1318.16219	129.07872920584808	82.05062819140068	1329.47273	-134.48451164545529	75.05370825787733	1394.10437	110.64692719927136	60.87432919261522	1403.47595	-106.48248437765666	-64.61699366907408	1210.22736	57.14910862883995	-71.5928566159987	1214.91316	-51.42555569548123	-56.31048293570135	1288.59322	5.270594036329084	7.366861847489671	1371.80645	5.548747929731717	75.58132027510692	1464.71443	3.9389832061221215	138.50036687868	1549.38187	2.104355408012803	385.01368327455384	1585.25243	-26.229476646981386	276.83155851244317	1678.64514	-6.9014197093602085	209.3910163564579	1625.80878	-1.6892741903177892	296.01158496336444	1509.31026	-19.704393129486498	315.8529118450193	1708.53727	-7.906854278513359	483.31916203578294	1877.06426	-43.08777567124952	467.8318958803234	1785.93365	27.654695857828866	418.499964128521	1796.75945	-97.0556853088195	399.37606815829963	1813.72526	-15.443557992993108	342.65556627122436	1646.81406	141.13915107726405	309.6117582090685	1662.64881	-168.3857237900645	464.75486259315676	1387.31804	123.57543751772727	435.88959406669574	1376.00751	70.24674709246551	418.1181089308971	1395.23542	-173.52057232142513	398.62030555834855	1385.21752	-115.84596352701163	557.6522867453706	1155.61363	127.49042344808306	600.5878067289219	1175.9726	106.98930255334518	428.39276913025515	1374.39172	109.094432871246	495.8595118829023	1160.94574	-202.57194084541297	542.0828342442944	1183.08208	-210.4007308868009	384.808695367329	1382.30909	-142.62199732616546	738.5110823699546	1074.82409	187.70686825707995	647.2385983822473	1079.83304	168.28124361313226	601.0784319249642	1125.88308	127.01714550009326	637.168358597725	1071.26935	-326.9870907087413	565.1389030751723	1078.54041	-268.04257533077083	538.1590188186251	1131.21519	-218.5445141807792	34.35303359180752	1219.92211	155.38152572888313	341.77689382185036	977.87664	89.14672410883993	339.222523503597	985.95559	12.757216794006926	364.9721636441147	1017.46351	51.44877040091496	10.47598643515063	1231.39422	-160.79452938621455	301.603108558177	961.71873	-161.6064836549332	311.25407986562266	963.17294	-85.37908548973694	333.4833371573354	995.97349	-124.94224545073894	388.55119952603604	950.56977	46.977387679567244	300.44918183269664	582.65419	99.18506961966793	295.75056324007085	580.2305	38.92508832402259	328.4084918932275	913.245	-129.20054624013372	50.715198539772416	652.94109	-160.98898681872856	56.53208262039327	646.47793	-101.05622256933721	244.32541718427984	512.20571	73.81707602670676	384.73444669151155	481.82884	7.284466851805605	398.6991890748547	476.01199	80.38188812998655	411.7916673750434	474.3962	38.63615463397059	280.38899060307136	506.8736	66.53308370028067	487.6890635923803	456.29934	22.59140133743523	-31.775339047737305	628.86581	-128.5401847346616	66.24941080111951	506.71202	-105.34707263123215	62.61231535390727	512.04413	-179.69213237324237	77.61179474255306	492.81622	-143.2713740825424	-6.587203831711278	601.72052	-131.66137279823448	126.79012866958158	430.44669	-150.09709592367946	
